<svg width="102.375000" height="39.375000" viewBox="0 0 102.375 39.375" fill="none" xmlns="http://www.w3.org/2000/svg" xmlns:xlink="http://www.w3.org/1999/xlink">
	<desc>
			Created with Pixso.
	</desc>
	<defs/>
	<path id="Vector" d="M14.62 0C8.61 0 3.65 2.54 3.65 5.62L3.65 18.33C1.42 19.37 0 20.85 0 22.5L0 39.37L18.28 39.37L18.28 35.62L84.09 35.62L84.09 39.37L102.37 39.37L102.37 22.5C102.37 20.85 100.94 19.37 98.71 18.33L98.71 5.62C98.71 2.54 93.76 0 87.75 0L14.62 0ZM14.62 3.75L87.75 3.75C89.77 3.75 91.4 4.58 91.4 5.62L91.4 16.87L84.09 16.87L84.09 15C84.09 11.91 79.13 9.37 73.12 9.37L58.5 9.37C55.69 9.37 53.13 9.93 51.18 10.83C49.18 9.9 46.58 9.38 43.87 9.37L29.25 9.37C23.23 9.37 18.28 11.91 18.28 15L18.28 16.87L10.96 16.87L10.96 5.62C10.96 4.58 12.59 3.75 14.62 3.75ZM29.25 13.12L43.87 13.12C45.9 13.12 47.53 13.95 47.53 15L47.53 16.87L25.59 16.87L25.59 15C25.59 13.95 27.22 13.12 29.25 13.12ZM58.5 13.12L73.12 13.12C75.15 13.12 76.78 13.95 76.78 15L76.78 16.87L54.84 16.87L54.84 15C54.84 13.95 56.47 13.12 58.5 13.12ZM10.96 20.62L91.4 20.62C93.43 20.62 95.06 21.45 95.06 22.5L95.06 35.62L91.4 35.62L91.4 31.87L10.96 31.87L10.96 35.62L7.31 35.62L7.31 22.5C7.31 21.45 8.93 20.62 10.96 20.62Z" fill="#000000" fill-opacity="1.000000" fill-rule="nonzero"/>
</svg>
