<svg width="55.000000" height="60.000000" viewBox="0 0 55 60" fill="none" xmlns="http://www.w3.org/2000/svg" xmlns:xlink="http://www.w3.org/1999/xlink">
	<desc>
			Created with Pixso.
	</desc>
	<defs>
		<clipPath id="clip109_5067">
			<rect id="eva:person-fill" rx="0.000000" width="54.000000" height="59.000000" transform="translate(0.500000 0.500000)" fill="white" fill-opacity="0"/>
		</clipPath>
	</defs>
	<rect id="eva:person-fill" rx="0.000000" width="54.000000" height="59.000000" transform="translate(0.500000 0.500000)" fill="#FFFFFF" fill-opacity="0"/>
	<g clip-path="url(#clip109_5067)">
		<path id="Vector" d="M26.62 36C28.95 36 31.23 35.41 33.17 34.31C35.11 33.21 36.62 31.65 37.51 29.82C38.4 27.99 38.63 25.98 38.18 24.04C37.72 22.1 36.6 20.32 34.95 18.92C33.31 17.53 31.21 16.57 28.92 16.19C26.63 15.8 24.26 16 22.11 16.76C19.96 17.51 18.12 18.79 16.82 20.44C15.53 22.08 14.83 24.02 14.83 26C14.83 28.65 16.08 31.19 18.29 33.07C20.5 34.94 23.49 36 26.62 36ZM44.3 61C45.08 61 45.83 60.73 46.38 60.26C46.93 59.79 47.25 59.16 47.25 58.5C47.25 53.85 45.07 49.4 41.2 46.12C37.34 42.84 32.09 41 26.62 41C21.15 41 15.9 42.84 12.04 46.12C8.17 49.4 6 53.85 6 58.5C6 59.16 6.31 59.79 6.86 60.26C7.41 60.73 8.16 61 8.94 61L44.3 61Z" fill="#000000" fill-opacity="1.000000" fill-rule="nonzero"/>
	</g>
</svg>
